<svg width="186.12000732421873" height="48.13862741428475" viewBox="0 0 369.5454545454545 95.58032585941824" class="looka-1j8o68f" xmlns="http://www.w3.org/2000/svg">
	<defs id="SvgjsDefs1230">
	</defs>
	<g id="SvgjsG1231" featurekey="UqkkrJ-0" transform="matrix(1.0516897950679895,0,0,1.0516897950679895,-4.561150445729982,-5.3573081731334975)" fill="#ffe2e2">
		<path xmlns="http://www.w3.org/2000/svg" fill="#ffe2e2" d="M95.1,11.836l-1.18-0.503l-0.453,0.179c-0.016-0.032-0.041-0.058-0.074-0.077  c-0.088-0.049-0.201-0.017-0.25,0.073l-0.021,0.038l-0.227-0.126c0.321-0.54,0.638-1.082,0.971-1.62  c0.619-1.002,1.52-2.322,0.914-3.532c-0.006-0.012-0.012-0.022-0.018-0.034c-0.402-0.758-1.414-1.112-2.24-0.892  c-1.006,0.268-1.877,0.896-2.73,1.467c-0.287,0.191-0.585,0.368-0.877,0.552L88.73,7.058l0.037-0.022  c0.086-0.054,0.115-0.167,0.061-0.252c-0.018-0.033-0.045-0.056-0.076-0.072l0.158-0.459l-0.549-1.159c0,0-0.664,0.453-0.922,0.254  l-0.072,0.045c0.057,0.32-0.65,0.698-0.65,0.698l0.771,1.024l0.482,0.069c0,0.036,0.006,0.071,0.027,0.103  c0.051,0.086,0.164,0.115,0.252,0.062l0.037-0.022l0.188,0.311c-0.743,0.458-1.494,0.904-2.253,1.332l-0.174-0.287l0.037-0.021  c0.088-0.053,0.115-0.166,0.062-0.252c-0.021-0.032-0.047-0.056-0.078-0.07l0.16-0.46L85.68,6.721c0,0-0.662,0.451-0.922,0.254  l-0.07,0.042c0.055,0.322-0.652,0.699-0.652,0.699l0.771,1.024l0.482,0.071c-0.002,0.035,0.008,0.07,0.027,0.101  C85.369,9,85.48,9.028,85.568,8.976l0.037-0.022l0.167,0.276c-0.802,0.45-1.603,0.923-2.413,1.374l-0.127-0.211l0.035-0.022  c0.088-0.053,0.115-0.166,0.062-0.252c-0.02-0.032-0.047-0.056-0.078-0.071l0.16-0.46l-0.553-1.158c0,0-0.66,0.452-0.918,0.255  l-0.072,0.043c0.055,0.321-0.652,0.699-0.652,0.699l0.773,1.025l0.48,0.07c-0.002,0.035,0.008,0.07,0.027,0.101  c0.053,0.087,0.166,0.116,0.252,0.063l0.037-0.023l0.117,0.193c-0.397,0.214-0.798,0.421-1.203,0.611  c-0.633,0.297-0.35,0.763-0.35,0.763c0.873,2.205-1.119,4.1-1.021,4.027l-29.283,29.23c-0.638,0.486-1.613,0.574-2.387,0.498  c-0.903-0.088-1.715,0.203-2.52,0.578c-0.928,0.435-1.857,0.868-2.786,1.301c-1.311,0.614-2.623,1.226-3.934,1.84  c-1.598,0.745-3.195,1.493-4.792,2.24c-1.756,0.82-3.512,1.642-5.268,2.465c-1.802,0.844-3.605,1.688-5.407,2.531  c-1.791,0.839-3.579,1.68-5.368,2.52c-1.586,0.744-3.172,1.486-4.755,2.232c-1.291,0.61-2.583,1.219-3.874,1.826  c-0.993,0.467-2.015,0.866-2.999,1.353c-0.858,0.424-1.944,0.931-2.414,1.818c-0.497,0.94-0.041,2.039,0.881,2.501  c1.04,0.519,2.221,0.19,3.318,0.11c1.59-0.113,3.187-0.171,4.777-0.289c1.863-0.137,3.73-0.224,5.594-0.346  c1.668-0.11,3.336-0.216,5.005-0.313c2.867-0.169,6.431-0.417,7.662,2.85c0.568,1.512,0.402,3.149,0.248,4.719  c-0.175,1.757-0.261,3.52-0.377,5.282c-0.123,1.864-0.209,3.73-0.347,5.594c-0.118,1.59-0.174,3.186-0.289,4.776  c-0.08,1.098-0.407,2.278,0.112,3.318c0.46,0.923,1.56,1.379,2.5,0.881c0.888-0.47,1.396-1.555,1.82-2.414  c0.485-0.983,0.884-2.006,1.351-2.998c0.607-1.291,1.216-2.584,1.826-3.875c0.747-1.583,1.489-3.169,2.233-4.754  c0.839-1.789,1.68-3.578,2.519-5.369c0.844-1.802,1.687-3.605,2.531-5.406c0.822-1.756,1.644-3.512,2.465-5.269  c0.747-1.597,1.495-3.193,2.241-4.793c0.613-1.311,1.226-2.622,1.838-3.935c0.436-0.928,0.869-1.856,1.303-2.784  c0.375-0.805,0.666-1.617,0.578-2.521c-0.076-0.774,0.012-1.749,0.496-2.388l29.23-29.283c-0.072,0.098,1.822-1.895,4.027-1.022  c0,0,0.467,0.284,0.764-0.35c0.162-0.344,0.359-0.676,0.543-1.01c0.024-0.045,0.05-0.091,0.075-0.136l0.296,0.163l-0.023,0.039  c-0.049,0.088-0.016,0.202,0.074,0.25c0.031,0.018,0.068,0.024,0.102,0.022l0.09,0.478l1.055,0.731c0,0,0.35-0.72,0.672-0.678  l0.041-0.075c-0.207-0.25,0.219-0.93,0.219-0.93l-1.182-0.503l-0.453,0.178c-0.016-0.03-0.041-0.057-0.072-0.075  c-0.088-0.048-0.203-0.016-0.25,0.073l-0.021,0.037l-0.296-0.163c0.318-0.581,0.637-1.162,0.958-1.74  c0.129-0.231,0.261-0.457,0.39-0.687l0.292,0.161l-0.021,0.038c-0.049,0.089-0.018,0.201,0.072,0.25  c0.031,0.019,0.068,0.024,0.102,0.022l0.09,0.479l1.055,0.73c0,0,0.35-0.721,0.672-0.679l0.041-0.073  c-0.207-0.25,0.219-0.931,0.219-0.931l-1.18-0.503l-0.453,0.179c-0.018-0.031-0.041-0.058-0.074-0.076  c-0.09-0.05-0.201-0.016-0.252,0.071l-0.02,0.039l-0.286-0.158c0.43-0.76,0.865-1.518,1.308-2.267l0.244,0.135l-0.02,0.037  c-0.049,0.088-0.02,0.2,0.07,0.25c0.033,0.018,0.068,0.025,0.105,0.022l0.088,0.479l1.055,0.731c0,0,0.348-0.722,0.672-0.68  l0.041-0.073C94.674,12.516,95.1,11.836,95.1,11.836z M52.446,55.435L37.465,87.357c0,0-0.507,0.547-0.758-0.289  c-0.25-0.837-3.361-12.055-3.336-12.106c0.024-0.05-0.358-0.445,0.803-1.643c1.161-1.197,5.31-5.477,5.31-5.477  s0.568-0.586-0.426-1.549c-1.114-1.08-2.228-2.162-3.343-3.24c-0.457-0.443-0.894-0.926-1.38-1.334  c-0.45-0.379-1.269-0.402-1.827-0.394c-1.016,0.016-7.025,0.084-7.025,0.084c-0.72-0.352-0.177-0.888-0.177-0.888l19.578-12.498  c0,0,0.377-0.364,0.74-0.013l6.641,6.593C52.659,54.986,52.446,55.435,52.446,55.435z">
		</path>
		<path xmlns="http://www.w3.org/2000/svg" fill="#ffe2e2" d="M39.224,56.796c-0.424-0.423-1.11-0.423-1.532,0.001c-0.357,0.354-0.395,0.889-0.152,1.304  c-0.416-0.242-0.949-0.204-1.304,0.151c-0.424,0.424-0.425,1.11-0.001,1.533l4.254,4.256c0.423,0.422,1.11,0.422,1.534,0  c0.356-0.357,0.394-0.893,0.149-1.307c0.415,0.242,0.95,0.205,1.306-0.15c0.423-0.424,0.423-1.109,0-1.533L39.224,56.796z">
		</path>
		<path xmlns="http://www.w3.org/2000/svg" fill="#ffe2e2" d="M50.326,54.204l-4.254-4.256c-0.424-0.425-1.11-0.425-1.532,0c-0.357,0.355-0.396,0.89-0.152,1.306  c-0.416-0.244-0.95-0.205-1.305,0.151c-0.424,0.422-0.424,1.108,0,1.533l4.254,4.255c0.423,0.421,1.11,0.421,1.534,0  c0.356-0.357,0.394-0.891,0.152-1.305c0.415,0.24,0.948,0.203,1.304-0.151C50.75,55.311,50.75,54.627,50.326,54.204z">
		</path>
		<circle xmlns="http://www.w3.org/2000/svg" fill="#ffe2e2" cx="37.558" cy="73.111" r="1.172">
		</circle>
		<circle xmlns="http://www.w3.org/2000/svg" fill="#ffe2e2" cx="41.39" cy="72.593" r="1.172">
		</circle>
		<circle xmlns="http://www.w3.org/2000/svg" fill="#ffe2e2" cx="39.475" cy="76.683" r="1.172">
		</circle>
	</g>
	<g id="SvgjsG1232" featurekey="0kuQ8p-0" transform="matrix(3.7935244303458715,0,0,3.7935244303458715,111.96518041050096,-11.154181443172373)" fill="#ffe2e2">
		<path d="M0.8 20 l0 -14 l3.48 0 c2.2 0 3.28 1.22 3.28 3.46 l0 7.08 c0 2.24 -1.08 3.46 -3.28 3.46 l-3.48 0 z M4.24 8 l-1.24 0 l0 10 l1.24 0 c0.7 0 1.12 -0.36 1.12 -1.36 l0 -7.28 c0 -1 -0.42 -1.36 -1.12 -1.36 z M11.16 8 l0 3.9 l3.02 0 l0 2 l-3.02 0 l0 4.1 l3.8 0 l0 2 l-6 0 l0 -14 l6 0 l0 2 l-3.8 0 z M16.04 9.36 c0 -2.24 1.1 -3.52 3.24 -3.52 s3.24 1.28 3.24 3.52 l0 0.44 l-2.08 0 l0 -0.58 c0 -1 -0.4 -1.38 -1.1 -1.38 s-1.1 0.38 -1.1 1.38 c0 1.02 0.44 1.78 1.88 3.04 c1.84 1.62 2.42 2.78 2.42 4.38 c0 2.24 -1.12 3.52 -3.28 3.52 s-3.28 -1.28 -3.28 -3.52 l0 -0.86 l2.08 0 l0 1 c0 1 0.44 1.36 1.14 1.36 s1.14 -0.36 1.14 -1.36 c0 -1.02 -0.44 -1.78 -1.88 -3.04 c-1.84 -1.62 -2.42 -2.78 -2.42 -4.38 z M23.8 20 l0 -14 l2.2 0 l0 14 l-2.2 0 z M30.060000000000002 8 l0 -2 l6.8 0 l0 2 l-2.3 0 l0 12 l-2.2 0 l0 -12 l-2.3 0 z M37.720000000000006 6 l2.2 0 l0 10.8 c0 1 0.44 1.36 1.14 1.36 s1.14 -0.36 1.14 -1.36 l0 -10.8 l2.08 0 l0 10.66 c0 2.24 -1.12 3.52 -3.28 3.52 s-3.28 -1.28 -3.28 -3.52 l0 -10.66 z M50.480000000000004 20 l-2.7 -10.14 l-0.04 0 l0 10.14 l-1.98 0 l0 -14 l2.76 0 l2.22 8.38 l0.04 0 l0 -8.38 l1.96 0 l0 14 l-2.26 0 z M56.52 8 l0 3.9 l3.02 0 l0 2 l-3.02 0 l0 4.1 l3.8 0 l0 2 l-6 0 l0 -14 l6 0 l0 2 l-3.8 0 z M61.400000000000006 9.36 c0 -2.24 1.1 -3.52 3.24 -3.52 s3.24 1.28 3.24 3.52 l0 0.44 l-2.08 0 l0 -0.58 c0 -1 -0.4 -1.38 -1.1 -1.38 s-1.1 0.38 -1.1 1.38 c0 1.02 0.44 1.78 1.88 3.04 c1.84 1.62 2.42 2.78 2.42 4.38 c0 2.24 -1.12 3.52 -3.28 3.52 s-3.28 -1.28 -3.28 -3.52 l0 -0.86 l2.08 0 l0 1 c0 1 0.44 1.36 1.14 1.36 s1.14 -0.36 1.14 -1.36 c0 -1.02 -0.44 -1.78 -1.88 -3.04 c-1.84 -1.62 -2.42 -2.78 -2.42 -4.38 z">
		</path>
	</g>
	<g id="SvgjsG1233" featurekey="Nh6iBa-0" transform="matrix(0.7521057999625751,0,0,0.7521057999625751,114.39831539589314,70.60770237208831)" fill="#ffe2e2">
		<path d="M3 8 l0 4.22 l2.84 0 l0 2 l-2.84 0 l0 5.78 l-2.2 0 l0 -14 l5.82 0 l0 2 l-3.62 0 z M18.9079375 8 l0 3.9 l3.02 0 l0 2 l-3.02 0 l0 4.1 l3.8 0 l0 2 l-6 0 l0 -14 l6 0 l0 2 l-3.8 0 z M35.295874999999995 8 l0 3.9 l3.02 0 l0 2 l-3.02 0 l0 4.1 l3.8 0 l0 2 l-6 0 l0 -14 l6 0 l0 2 l-3.8 0 z M49.48381249999999 20 l0 -14 l2.2 0 l0 12 l3.62 0 l0 2 l-5.82 0 z M76.7796875 8 l0 -2 l6.8 0 l0 2 l-2.3 0 l0 12 l-2.2 0 l0 -12 l-2.3 0 z M95.767625 14 l0 6 l-2.2 0 l0 -14 l2.2 0 l0 6 l2.5 0 l0 -6 l2.24 0 l0 14 l-2.24 0 l0 -6 l-2.5 0 z M113.3355625 8 l0 3.9 l3.02 0 l0 2 l-3.02 0 l0 4.1 l3.8 0 l0 2 l-6 0 l0 -14 l6 0 l0 2 l-3.8 0 z M139.65143750000001 20 l0 -14 l3.48 0 c2.2 0 3.28 1.22 3.28 3.46 l0 7.08 c0 2.24 -1.08 3.46 -3.28 3.46 l-3.48 0 z M143.0914375 8 l-1.24 0 l0 10 l1.24 0 c0.7 0 1.12 -0.36 1.12 -1.36 l0 -7.28 c0 -1 -0.42 -1.36 -1.12 -1.36 z M159.039375 8 l0 3.9 l3.02 0 l0 2 l-3.02 0 l0 4.1 l3.8 0 l0 2 l-6 0 l0 -14 l6 0 l0 2 l-3.8 0 z M172.9473125 9.36 c0 -2.24 1.1 -3.52 3.24 -3.52 s3.24 1.28 3.24 3.52 l0 0.44 l-2.08 0 l0 -0.58 c0 -1 -0.4 -1.38 -1.1 -1.38 s-1.1 0.38 -1.1 1.38 c0 1.02 0.44 1.78 1.88 3.04 c1.84 1.62 2.42 2.78 2.42 4.38 c0 2.24 -1.12 3.52 -3.28 3.52 s-3.28 -1.28 -3.28 -3.52 l0 -0.86 l2.08 0 l0 1 c0 1 0.44 1.36 1.14 1.36 s1.14 -0.36 1.14 -1.36 c0 -1.02 -0.44 -1.78 -1.88 -3.04 c-1.84 -1.62 -2.42 -2.78 -2.42 -4.38 z M189.73525 20 l0 -14 l2.2 0 l0 14 l-2.2 0 z M218.011125 6 c2.28 0 3.26 1.06 3.26 3.22 l0 0.5 c0 1.44 -0.44 2.34 -1.42 2.8 l0 0.04 c1.18 0.46 1.64 1.5 1.64 2.98 l0 1.14 c0 2.16 -1.14 3.32 -3.34 3.32 l-3.46 0 l0 -14 l3.32 0 z M217.87112499999998 13.7 l-0.98 0 l0 4.3 l1.26 0 c0.74 0 1.14 -0.34 1.14 -1.38 l0 -1.22 c0 -1.3 -0.42 -1.7 -1.42 -1.7 z M217.951125 8 l-1.06 0 l0 3.7 l0.86 0 c0.82 0 1.32 -0.36 1.32 -1.48 l0 -0.78 c0 -1 -0.34 -1.44 -1.12 -1.44 z M234.0390625 8 l0 3.9 l3.02 0 l0 2 l-3.02 0 l0 4.1 l3.8 0 l0 2 l-6 0 l0 -14 l6 0 l0 2 l-3.8 0 z M253.107 6 l2.24 14 l-2.22 0 l-0.38 -2.54 l-2.7 0 l-0.38 2.54 l-2.02 0 l2.24 -14 l3.22 0 z M251.367 8.48 l-1.04 7.08 l2.12 0 l-1.04 -7.08 l-0.04 0 z M264.75493750000004 8 l0 -2 l6.8 0 l0 2 l-2.3 0 l0 12 l-2.2 0 l0 -12 l-2.3 0 z">
		</path>
	</g>
</svg>

