<svg xmlns="http://www.w3.org/2000/svg" width="196.2" height="111.60949570622849" viewBox="0 0 350 199.09950814057072" class="looka-1j8o68f">
	<defs id="SvgjsDefs1896">
		<linearGradient id="SvgjsLinearGradient1903">
			<stop id="SvgjsStop1904" stop-color="#905e26" offset="0">
			</stop>
			<stop id="SvgjsStop1905" stop-color="#f5ec9b" offset="0.5">
			</stop>
			<stop id="SvgjsStop1906" stop-color="#905e26" offset="1">
			</stop>
		</linearGradient>
		<linearGradient id="SvgjsLinearGradient1907">
			<stop id="SvgjsStop1908" stop-color="#905e26" offset="0">
			</stop>
			<stop id="SvgjsStop1909" stop-color="#f5ec9b" offset="0.5">
			</stop>
			<stop id="SvgjsStop1910" stop-color="#905e26" offset="1">
			</stop>
		</linearGradient>
		<linearGradient id="SvgjsLinearGradient1911">
			<stop id="SvgjsStop1912" stop-color="#905e26" offset="0">
			</stop>
			<stop id="SvgjsStop1913" stop-color="#f5ec9b" offset="0.5">
			</stop>
			<stop id="SvgjsStop1914" stop-color="#905e26" offset="1">
			</stop>
		</linearGradient>
	</defs>
	<g id="SvgjsG1897" featurekey="T6b0uQ-0" transform="matrix(1.4732029170414551,0,0,1.4732029170414551,101.33479279471236,-17.089154399663194)" fill="url(#SvgjsLinearGradient1903)">
		<ellipse xmlns="http://www.w3.org/2000/svg" cx="36.8" cy="55.3" rx="5.5" ry="5.5">
		</ellipse>
		<path xmlns="http://www.w3.org/2000/svg" d="M96.7,13.1l-0.3-0.2c-0.5-0.4-1.2-0.6-1.8-0.6c-0.1,0-0.2,0-0.2,0s0,0-0.1,0c-0.3,0-0.5-0.1-0.7-0.3  c-0.3-0.3-0.7-0.4-1.1-0.4c-0.3,0-0.6,0.1-0.9,0.3c0,0-0.1,0-0.2,0h-0.1l-0.7-0.2c-0.1,0-0.2,0-0.3,0c-0.2,0-0.4,0.1-0.5,0.2  l-12.2,8.3c-0.3,0.2-0.4,0.5-0.4,0.8c0,0.6-0.4,1.1-0.9,1.2L76,22.3c-0.1,0-0.2,0.1-0.3,0.1L48,42c-1.2-1.5-2.8-2.8-4.6-3.6  c-1.4-0.7-2.9-1-4.4-1c-2.8,0-5.5,1.2-7.5,3.2c-1.4,1.5-2.6,3.1-3.7,4.7c-0.9,1.4-2.3,2.3-3.8,2.5l-6.9,1c-3.9,0.4-7.5,2.1-10.3,4.9  c-3.9,3.8-5.3,9.5-3.6,14.7C5,73.7,8,78.7,11.9,82.8c0.3,0.3,0.6,0.6,0.9,0.9c0,0.1,0.1,0.1,0.2,0.2l2.7,2.3c1.7,1.4,4,2.1,6.7,2.1  c0.2,0,0.4,0,0.7,0h0.2c3.4,0,7.4-1.5,10.4-3.9c2.1-1.7,3.8-3.8,5-6.2c1.1-2.3,2.2-4.6,3-6.9c0.4-0.9,0.9-1.8,1.7-2.5  c0.4-0.4,0.9-0.7,1.4-0.8c2.7-0.6,5.4-1.8,7.6-3.6c2.7-2.1,4.1-5.5,3.7-8.9c-0.3-2.7-1.3-5.3-3-7.5l27-19.9c0.2-0.1,0.4-0.1,0.6-0.1  s0.4,0,0.7,0.1c0.2,0.1,0.5,0.2,0.7,0.2c0.3,0,0.7-0.1,0.9-0.3l12.8-7.6c0.5-0.3,0.9-0.8,0.8-1.4c0-0.1,0.1-0.3,0.2-0.4  c0.4-0.4,0.6-0.8,0.6-1.4c0-0.4-0.1-0.8-0.2-1.2c0.2-0.3,0.3-0.7,0.3-1C97.6,14.4,97.3,13.6,96.7,13.1z M96.1,15  c0,0.2-0.1,0.4-0.2,0.6c-0.2,0.3-0.2,0.7-0.1,1s0.1,0.5,0.2,0.8c0,0.1,0,0.2-0.1,0.3c-0.4,0.4-0.6,0.9-0.6,1.5l-0.1,0.1l-12.9,7.6  c-0.1,0.1-0.2,0.1-0.3,0c-0.8-0.3-1.7-0.3-2.4,0c0,0-0.1,0-0.1,0.1L51.6,47.6l0,0l0,0L51.1,48c-0.2,0.2-0.2,0.4-0.1,0.6l0.2,0.3  c1.3,1.8,1.9,4,1.9,6.3c-0.1,4.2-3,7.9-7,8.9c-1.4,0.3-2.8,0.7-4.2,1.2c-1.6,0.5-3,1.6-3.8,3.2l-2.4,5.6c-1,2.4-2.3,4.7-3.8,6.7  c-0.4,0.6-0.9,1.1-1.4,1.6c-4.6,4.4-11.8,4.5-16.6,0.4c-0.3-0.3-0.6-0.6-0.9-0.9c-3.8-4-6.6-8.8-8.4-14C3,63.3,4.3,58.1,7.8,54.7  c2.6-2.5,6-4.1,9.6-4.5l6.9-1c2-0.3,3.7-1.4,4.8-3.1c1-1.6,2.2-3.1,3.5-4.5c0.2-0.2,0.4-0.4,0.6-0.6c0.1-0.1,0.1-0.1,0.2-0.2  c0.2-0.1,0.3-0.3,0.5-0.4c0.1-0.1,0.1-0.1,0.2-0.2c0.2-0.1,0.4-0.2,0.6-0.4l0.1-0.1c0.2-0.1,0.5-0.2,0.7-0.4c0.1,0,0.1-0.1,0.2-0.1  c0.2-0.1,0.4-0.1,0.6-0.2c0.1,0,0.2-0.1,0.3-0.1c0.2-0.1,0.4-0.1,0.6-0.2c0.1,0,0.1,0,0.2,0c0.3-0.1,0.5-0.1,0.8-0.1  c0.1,0,0.1,0,0.2,0c0.2,0,0.4,0,0.7,0c0.1,0,0.2,0,0.2,0c0.2,0,0.5,0,0.7,0c0.1,0,0.1,0,0.2,0c0.3,0,0.6,0.1,0.9,0.1  c0.1,0,0.1,0,0.2,0c0.2,0.1,0.5,0.1,0.7,0.2c0.1,0,0.2,0.1,0.2,0.1c0.3,0.1,0.6,0.2,0.8,0.3c1.7,0.8,3.2,2,4.3,3.5  c0.1,0.1,0.2,0.2,0.3,0.4s0.4,0.3,0.6,0.1l28.5-20.1l0.2-0.1c1-0.3,1.8-1.3,1.8-2.3l11.8-8.1l0.6,0.2c0.5,0.1,1,0.1,1.4-0.2  c0.1-0.1,0.3-0.1,0.4,0c0.5,0.4,1.1,0.6,1.8,0.6c0.4,0,0.7,0.1,1,0.3l0.3,0.2C96,14.4,96.1,14.7,96.1,15z">
		</path>
	</g>
	<g id="SvgjsG1898" featurekey="i9e7OP-0" transform="matrix(2.8662804613994775,0,0,2.8662804613994775,-2.295260063013847,119.36944336076432)" fill="url(#SvgjsLinearGradient1907)">
		<path d="M0.80078 5.195 l5.6836 0 q1.015625 0 1.948242188 0.263671875 t1.7383 0.74219 t1.4648 1.1475 t1.1279 1.4893 t0.72266 1.7676 t0.25391 1.9727 t-0.25391 1.9727 t-0.72266 1.7725 t-1.1279 1.5039 t-1.4648 1.1621 t-1.7383 0.74707 t-1.9482 0.26367 l-5.6836 0 l0 -2.6758 l1.1816 0 l0 -9.4434 l-1.1816 0 l0 -2.6855 z M5.2246 7.881 l0 9.4434 l1.2402 0 q0.791015625 0 1.494140625 -0.37109375 t1.2207 -1.0107 t0.82031 -1.5039 t0.30273 -1.8604 q0 -0.986328125 -0.302734375 -1.845703125 t-0.82031 -1.4941 t-1.2207 -0.99609 t-1.4941 -0.36133 l-1.2402 0 z M15.4394375 5.195 l11.777 0 l0 5.0488 l-3.1836 0 l0 -2.0996 l-3.7988 0 l0 2.9199 l2.9395 0 l0 2.832 l-2.9395 0 l0 3.4277 l3.7988 0 l0 -2.627 l3.1836 0 l0 5.3027 l-11.777 0 l0 -2.6758 l1.5527 0 l0 -9.1797 l-1.5527 0 l0 -2.9492 z M36.0352 9.365 q-0.048828125 -0.341796875 -0.2392578125 -0.64453125 t-0.48828 -0.52246 t-0.67383 -0.34668 t-0.78613 -0.12695 q-0.37109375 0 -0.693359375 0.078125 t-0.56152 0.23926 t-0.38086 0.41504 t-0.1416 0.60547 q0 0.439453125 0.1904296875 0.6982421875 t0.48828 0.4248 t0.65918 0.26367 t0.70313 0.21484 l2.6855 0.89844 q0.556640625 0.1953125 1.044921875 0.537109375 t0.84473 0.83008 t0.56152 1.123 t0.20508 1.4258 q0 1.07421875 -0.3955078125 1.962890625 t-1.1084 1.5234 t-1.709 0.98633 t-2.207 0.35156 q-0.849609375 0 -1.606445313 -0.1904296875 t-1.3818 -0.55176 t-1.0938 -0.86426 t-0.73242 -1.1377 l-1.0059 0 l0 -2.9395 l3.5352 0 l0 0.60547 q0 0.439453125 0.1416015625 0.810546875 t0.4248 0.64453 t0.71289 0.4248 t1.0059 0.15137 q0.87890625 0 1.337890625 -0.4052734375 t0.45898 -1.1279 q0 -0.37109375 -0.1611328125 -0.6201171875 t-0.41504 -0.41992 t-0.56641 -0.28809 t-0.61523 -0.21484 l-2.2363 -0.72266 q-0.634765625 -0.1953125 -1.225585938 -0.546875 t-1.0449 -0.87891 t-0.72266 -1.2354 t-0.26855 -1.6162 q0 -1.0546875 0.390625 -1.879882813 t1.0938 -1.3916 t1.6699 -0.85938 t2.1191 -0.29297 q0.908203125 0 1.6796875 0.2099609375 t1.3818 0.56152 t1.0352 0.80566 t0.64941 0.94238 l0.97656 0 l0 2.9492 l-3.5352 0 l0 -0.85938 z M41.074203125 5.195 l6.3379 0 l0 2.6758 l-1.5625 0 l0 9.4531 l1.5625 0 l0 2.6758 l-6.3379 0 l0 -2.6758 l1.5332 0 l0 -9.4531 l-1.5332 0 l0 -2.6758 z M55.527365625 17.3242 l1.5332 0 l0 -9.541 l-1.7969 0 l0 1.9141 l-3.1836 0 l0 -4.502 l13.467 0 l0 4.502 l-3.2031 0 l0 -1.9141 l-2.041 0 l0 9.541 l1.5625 0 l0 2.6758 l-6.3379 0 l0 -2.6758 z M66.347659375 5.195 l5.9375 0 l0 2.6855 l-1.3574 0 l0 6.1426 q0 0.83984375 0.1904296875 1.42578125 t0.53223 0.95703 t0.81055 0.54199 t1.0254 0.1709 q0.576171875 0 1.049804688 -0.146484375 t0.81055 -0.50293 t0.51758 -0.95215 t0.18066 -1.4941 l0 -6.1426 l-1.5723 0 l0 -2.6855 l5.9375 0 l0 2.6855 l-1.1816 0 l0 5.7617 q0 1.5625 -0.44921875 2.778320313 t-1.2354 2.0557 t-1.8457 1.2793 t-2.2705 0.43945 q-1.201171875 0 -2.24609375 -0.4345703125 t-1.8213 -1.2598 t-1.2256 -2.0068 t-0.44922 -2.6758 l0 -5.9375 l-1.3379 0 l0 -2.6855 z M91.55275 5.195 l5.625 0 l0 2.6855 l-1.2012 0 l0 12.119 l-3.2422 0 l-6.1621 -9.5703 l0 6.8945 l1.2402 0 l0 2.6758 l-5.6152 0 l0 -2.6758 l1.2207 0 l0 -9.4434 l-1.2012 0 l0 -2.6855 l4.4727 0 l6.123 9.6973 l0 -7.0117 l-1.2598 0 l0 -2.6855 z M98.77928125 5.195 l11.777 0 l0 5.0488 l-3.1836 0 l0 -2.0996 l-3.7988 0 l0 2.9199 l2.9395 0 l0 2.832 l-2.9395 0 l0 3.4277 l3.7988 0 l0 -2.627 l3.1836 0 l0 5.3027 l-11.777 0 l0 -2.6758 l1.5527 0 l0 -9.1797 l-1.5527 0 l0 -2.9492 z M119.37504375 9.365 q-0.048828125 -0.341796875 -0.2392578125 -0.64453125 t-0.48828 -0.52246 t-0.67383 -0.34668 t-0.78613 -0.12695 q-0.37109375 0 -0.693359375 0.078125 t-0.56152 0.23926 t-0.38086 0.41504 t-0.1416 0.60547 q0 0.439453125 0.1904296875 0.6982421875 t0.48828 0.4248 t0.65918 0.26367 t0.70313 0.21484 l2.6855 0.89844 q0.556640625 0.1953125 1.044921875 0.537109375 t0.84473 0.83008 t0.56152 1.123 t0.20508 1.4258 q0 1.07421875 -0.3955078125 1.962890625 t-1.1084 1.5234 t-1.709 0.98633 t-2.207 0.35156 q-0.849609375 0 -1.606445313 -0.1904296875 t-1.3818 -0.55176 t-1.0938 -0.86426 t-0.73242 -1.1377 l-1.0059 0 l0 -2.9395 l3.5352 0 l0 0.60547 q0 0.439453125 0.1416015625 0.810546875 t0.4248 0.64453 t0.71289 0.4248 t1.0059 0.15137 q0.87890625 0 1.337890625 -0.4052734375 t0.45898 -1.1279 q0 -0.37109375 -0.1611328125 -0.6201171875 t-0.41504 -0.41992 t-0.56641 -0.28809 t-0.61523 -0.21484 l-2.2363 -0.72266 q-0.634765625 -0.1953125 -1.225585938 -0.546875 t-1.0449 -0.87891 t-0.72266 -1.2354 t-0.26855 -1.6162 q0 -1.0546875 0.390625 -1.879882813 t1.0938 -1.3916 t1.6699 -0.85938 t2.1191 -0.29297 q0.908203125 0 1.6796875 0.2099609375 t1.3818 0.56152 t1.0352 0.80566 t0.64941 0.94238 l0.97656 0 l0 2.9492 l-3.5352 0 l0 -0.85938 z">
		</path>
	</g>
	<g id="SvgjsG1899" featurekey="9oQUJT-0" transform="matrix(0.7459346333216775,0,0,0.7459346333216775,33.68715505246764,183.91227819516962)" fill="url(#SvgjsLinearGradient1911)">
		<path d="M10.54 5.84 l0 1.56 l-7.1 0 l0 4.68 l6.6 0 l0 1.56 l-6.6 0 l0 6.36 l-1.68 0 l0 -14.16 l8.78 0 z M32.664 5.84 l0 1.56 l-7.22 0 l0 4.44 l6.74 0 l0 1.56 l-6.74 0 l0 5.04 l7.58 0 l0 1.56 l-9.26 0 l0 -14.16 l8.9 0 z M55.408 5.84 l0 1.56 l-7.22 0 l0 4.44 l6.74 0 l0 1.56 l-6.74 0 l0 5.04 l7.58 0 l0 1.56 l-9.26 0 l0 -14.16 l8.9 0 z M70.93199999999999 5.84 l0 12.6 l6.48 0 l0 1.56 l-8.16 0 l0 -14.16 l1.68 0 z M116.08 5.84 l0 1.56 l-4.68 0 l0 12.6 l-1.68 0 l0 -12.6 l-4.68 0 l0 -1.56 l11.04 0 z M130.624 5.84 l0 6 l7.56 0 l0 -6 l1.68 0 l0 14.16 l-1.68 0 l0 -6.6 l-7.56 0 l0 6.6 l-1.68 0 l0 -14.16 l1.68 0 z M163.16799999999998 5.84 l0 1.56 l-7.22 0 l0 4.44 l6.74 0 l0 1.56 l-6.74 0 l0 5.04 l7.58 0 l0 1.56 l-9.26 0 l0 -14.16 l8.9 0 z M198.47599999999997 5.84 q3.1 0 5.08 1.95 t2.02 5.13 q0 3.16 -1.99 5.1 t-5.07 1.98 l-5.32 0 l0 -14.16 l5.28 0 z M198.07599999999996 18.44 q2.66 0 4.17 -1.41 t1.53 -4.11 q0 -2.6 -1.48 -4.04 t-4.22 -1.48 l-3.2 0 l0 11.04 l3.2 0 z M228.05999999999997 5.84 l0 1.56 l-7.22 0 l0 4.44 l6.74 0 l0 1.56 l-6.74 0 l0 5.04 l7.58 0 l0 1.56 l-9.26 0 l0 -14.16 l8.9 0 z M246.04399999999998 5.48 q2.58 0 3.96 1.66 l-1.38 1.2 q-0.8 -1.26 -2.58 -1.3 q-1.34 0 -2.18 0.64 t-0.84 1.74 q0 0.96 0.64 1.52 t2.4 1.1 q2.28 0.66 3.23 1.61 t0.95 2.57 q0 1.88 -1.4 3 t-3.58 1.14 q-1.46 0 -2.6 -0.52 t-1.76 -1.44 l1.44 -1.18 q0.46 0.76 1.28 1.17 t1.74 0.41 q1.26 0 2.17 -0.71 t0.91 -1.75 q0 -0.94 -0.53 -1.48 t-1.75 -0.92 l-1.62 -0.54 q-1.82 -0.62 -2.57 -1.55 t-0.75 -2.29 q0 -1.8 1.34 -2.93 t3.48 -1.15 z M265.58799999999997 5.84 l0 14.16 l-1.68 0 l0 -14.16 l1.68 0 z M300.756 5.84 q2.24 0 3.46 0.91 t1.24 2.57 q0 1.22 -0.67 2.04 t-1.81 1.16 l0 0.04 q1.38 0.12 2.29 1.11 t0.91 2.37 q0 1.88 -1.42 2.91 t-4.04 1.05 l-4.28 0 l0 -14.16 l4.32 0 z M300.51599999999996 11.84 q1.54 0 2.34 -0.55 t0.8 -1.75 q0 -2.1 -2.96 -2.14 l-2.58 0 l0 4.44 l2.4 0 z M301.036 18.44 q1.52 0 2.43 -0.67 t0.91 -1.79 q0 -1.28 -0.9 -1.93 t-2.46 -0.65 l-2.9 0 l0 5.04 l2.92 0 z M328.82 5.84 l0 1.56 l-7.22 0 l0 4.44 l6.74 0 l0 1.56 l-6.74 0 l0 5.04 l7.58 0 l0 1.56 l-9.26 0 l0 -14.16 l8.9 0 z M348.844 5.84 l6.02 14.16 l-1.96 0 l-1.44 -3.48 l-7.08 0 l-1.46 3.48 l-1.9 0 l6.24 -14.16 l1.58 0 z M347.984 8 l-2.94 6.96 l5.78 0 l-2.8 -6.96 l-0.04 0 z M377.128 5.84 l0 1.56 l-4.68 0 l0 12.6 l-1.68 0 l0 -12.6 l-4.68 0 l0 -1.56 l11.04 0 z">
		</path>
	</g>
</svg>
