<svg xmlns="http://www.w3.org/2000/svg" width="186.12000732421876" height="113.52598012407718" viewBox="0 0 350 213.486414570201" class="looka-1j8o68f">
	<defs id="SvgjsDefs1406">
		<linearGradient id="SvgjsLinearGradient1413">
			<stop id="SvgjsStop1414" stop-color="#905e26" offset="0">
			</stop>
			<stop id="SvgjsStop1415" stop-color="#f5ec9b" offset="0.5">
			</stop>
			<stop id="SvgjsStop1416" stop-color="#905e26" offset="1">
			</stop>
		</linearGradient>
		<linearGradient id="SvgjsLinearGradient1417">
			<stop id="SvgjsStop1418" stop-color="#905e26" offset="0">
			</stop>
			<stop id="SvgjsStop1419" stop-color="#f5ec9b" offset="0.5">
			</stop>
			<stop id="SvgjsStop1420" stop-color="#905e26" offset="1">
			</stop>
		</linearGradient>
		<linearGradient id="SvgjsLinearGradient1421">
			<stop id="SvgjsStop1422" stop-color="#905e26" offset="0">
			</stop>
			<stop id="SvgjsStop1423" stop-color="#f5ec9b" offset="0.5">
			</stop>
			<stop id="SvgjsStop1424" stop-color="#905e26" offset="1">
			</stop>
		</linearGradient>
	</defs>
	<g id="SvgjsG1407" featurekey="symbolFeature-0" transform="matrix(1.6903719962865407,0,0,1.6903719962865407,90.4813953494799,-24.790996316571118)" fill="url(#SvgjsLinearGradient1413)">
		<g xmlns="http://www.w3.org/2000/svg">
			<path d="M81.421,48.701v-2.695c0-17.281-14.06-31.34-31.34-31.34c-17.282,0-31.343,14.059-31.343,31.34v2.645   c-2.581,0.738-4.484,3.09-4.484,5.908v24.604c0,3.408,2.766,6.172,6.172,6.172c3.408,0,6.172-2.764,6.172-6.172V54.559   c0-2.699-1.746-4.971-4.162-5.809v-2.744c0-15.242,12.4-27.645,27.646-27.645c15.242,0,27.645,12.402,27.645,27.645v2.695   c-2.499,0.787-4.324,3.1-4.324,5.857v24.604c0,3.408,2.764,6.172,6.17,6.172c3.408,0,6.175-2.764,6.175-6.172V54.559   C85.746,51.799,83.921,49.488,81.421,48.701">
			</path>
			<path d="M89.388,56.887c-1.118,0-2.025,0.908-2.025,2.023v15.9c0,1.119,0.907,2.023,2.025,2.023c1.115,0,2.023-0.904,2.023-2.023   v-15.9C91.411,57.795,90.503,56.887,89.388,56.887">
			</path>
			<path d="M10.612,56.887c-1.117,0-2.023,0.908-2.023,2.023v15.9c0,1.119,0.906,2.023,2.023,2.023s2.024-0.904,2.024-2.023v-15.9   C12.637,57.795,11.729,56.887,10.612,56.887">
			</path>
		</g>
	</g>
	<g id="SvgjsG1408" featurekey="fiAKjI-0" transform="matrix(3.2863849765258215,0,0,3.2863849765258215,-2.760563489976623,119.15023643422015)" fill="url(#SvgjsLinearGradient1417)">
		<path d="M0.84 20 l0 -13.7 l5.6 0 c4.22 0 6.98 3 6.98 6.78 c0 3.86 -2.88 6.92 -7.14 6.92 l-5.44 0 z M6.28 9.14 l-2.34 0 l0 8.02 l2.44 0 c2.22 0 3.92 -1.72 3.92 -4.04 c0 -2.28 -1.7 -3.98 -4.02 -3.98 z M14.78 20 l0 -13.7 l10.02 0 l0 2.8 l-6.92 0 l0 2.58 l6.4 0 l0 2.72 l-6.4 0 l0 2.8 l6.94 0 l0 2.8 l-10.04 0 z M31.18 20.26 c-3.46 0 -5.36 -1.72 -5.54 -4.54 l3.1 0 c0.06 1.04 0.66 2.08 2.52 2.08 c1.56 0 2.36 -0.62 2.36 -1.48 c0 -1.06 -1.34 -1.34 -2.9 -1.68 c-2.18 -0.52 -4.84 -1.16 -4.84 -4.42 c0 -2.4 1.86 -4.18 5.14 -4.18 c3.34 0 5.18 1.82 5.38 4.5 l-3.12 0 c-0.06 -1.1 -0.66 -1.98 -2.34 -1.98 c-1.24 0 -2.06 0.5 -2.06 1.4 c0 1.16 1.36 1.48 2.92 1.84 c2.24 0.5 4.92 1.06 4.92 4.14 c0 2.5 -1.96 4.32 -5.54 4.32 z M41.059999999999995 20 l-3.1 0 l0 -13.7 l3.1 0 l0 13.7 z M53.3 20 l-3.1 0 l0 -10.86 l-4.08 0 l0 -2.84 l11.26 0 l0 2.84 l-4.08 0 l0 10.86 z M64.38 20.24 c-3.84 0 -5.94 -2.28 -5.94 -5.68 l0 -8.26 l3.1 0 l0 7.84 c0 2.08 1.02 3.22 2.82 3.22 c1.78 0 2.78 -1.14 2.78 -3.22 l0 -7.84 l3.1 0 l0 8.26 c0 3.4 -2.08 5.68 -5.86 5.68 z M80.34 20 l-5.52 -8.68 l0 8.68 l-2.98 0 l0 -13.7 l3.38 0 l5.52 8.7 l0 -8.7 l2.98 0 l0 13.7 l-3.38 0 z M85.4 20 l0 -13.7 l10.02 0 l0 2.8 l-6.92 0 l0 2.58 l6.4 0 l0 2.72 l-6.4 0 l0 2.8 l6.94 0 l0 2.8 l-10.04 0 z M101.80000000000001 20.26 c-3.46 0 -5.36 -1.72 -5.54 -4.54 l3.1 0 c0.06 1.04 0.66 2.08 2.52 2.08 c1.56 0 2.36 -0.62 2.36 -1.48 c0 -1.06 -1.34 -1.34 -2.9 -1.68 c-2.18 -0.52 -4.84 -1.16 -4.84 -4.42 c0 -2.4 1.86 -4.18 5.14 -4.18 c3.34 0 5.18 1.82 5.38 4.5 l-3.12 0 c-0.06 -1.1 -0.66 -1.98 -2.34 -1.98 c-1.24 0 -2.06 0.5 -2.06 1.4 c0 1.16 1.36 1.48 2.92 1.84 c2.24 0.5 4.92 1.06 4.92 4.14 c0 2.5 -1.96 4.32 -5.54 4.32 z">
		</path>
	</g>
	<g id="SvgjsG1409" featurekey="sloganFeature-0" transform="matrix(1.2143342968995368,0,0,1.2143342968995368,32.93563163736682,188.9568608463668)" fill="url(#SvgjsLinearGradient1421)">
		<path d="M3.5 7.720000000000001 l0 4.32 l4.28 0 l0 1.72 l-4.28 0 l0 6.24 l-1.8 0 l0 -14 l7.96 0 l0.12 1.72 l-6.28 0 z M23.307000000000002 18.28 l0.12 1.72 l-8.52 0 l0 -14 l8.12 0 l0.14 1.72 l-6.46 0 l0 3.42 l4.38 0 l0 1.72 l-4.38 0 l0 5.42 l6.6 0 z M36.974000000000004 18.28 l0.12 1.72 l-8.52 0 l0 -14 l8.12 0 l0.14 1.72 l-6.46 0 l0 3.42 l4.38 0 l0 1.72 l-4.38 0 l0 5.42 l6.6 0 z M44.041000000000004 18.28 l5.92 0 l-0.12 1.72 l-7.6 0 l0 -14 l1.8 0 l0 12.28 z M72.81500000000001 7.720000000000001 l-4.08 0 l0 12.28 l-1.8 0 l0 -12.28 l-4.1 0 l0.12 -1.72 l9.74 0 z M86.28200000000001 6 l1.8 0 l0 14 l-1.8 0 l0 -6.44 l-6.94 0 l0 6.44 l-1.8 0 l0 -14 l1.8 0 l0 5.84 l6.94 0 l0 -5.84 z M102.409 18.28 l0.12 1.72 l-8.52 0 l0 -14 l8.12 0 l0.14 1.72 l-6.46 0 l0 3.42 l4.38 0 l0 1.72 l-4.38 0 l0 5.42 l6.6 0 z M121.86300000000001 6 c4.64 0 7.2 2.84 7.2 7 s-2.56 7 -7.2 7 l-4.8 0 l0 -14 l4.8 0 z M121.96300000000001 18.28 c3.4 0 5.3 -2.12 5.3 -5.28 c0 -3.18 -1.9 -5.28 -5.3 -5.28 l-3.1 0 l0 10.56 l3.1 0 z M142.85 18.28 l0.12 1.72 l-8.52 0 l0 -14 l8.12 0 l0.14 1.72 l-6.46 0 l0 3.42 l4.38 0 l0 1.72 l-4.38 0 l0 5.42 l6.6 0 z M147.337 18.54 c0.88 0.82 2.7 1.66 4.52 1.66 c2.8 0 4.58 -1.44 4.58 -3.7 c0 -1.84 -0.88 -2.92 -3.92 -4.64 c-2.32 -1.34 -2.88 -1.78 -2.88 -2.66 c0 -0.94 0.88 -1.68 2.36 -1.68 c0.86 0 2 0.38 2.66 0.8 l0.96 -1.44 c-0.94 -0.62 -2.42 -1.08 -3.6 -1.08 c-2.58 0 -4.3 1.48 -4.3 3.42 c0 1.72 0.86 2.58 3.5 4.02 c2.34 1.28 3.3 2.22 3.3 3.24 c0 1.2 -1.04 1.92 -2.66 1.92 c-1.4 0 -2.8 -0.66 -3.5 -1.3 z M161.584 20 l0 -14 l1.8 0 l0 14 l-1.8 0 z M186.29800000000003 11.16 c1.76 0.64 2.78 2.24 2.78 4.28 c0 2.38 -1.18 4.48 -5 4.56 l-5.38 0 l0 -14 l5.6 0 c2.46 0 3.14 1.8 3.14 2.94 c0 1 -0.6 1.8 -1.14 2.22 z M184.07800000000003 7.619999999999999 l-3.58 0 l0 3.12 l3.2 0 c1.42 0 1.98 -0.72 1.98 -1.58 c0 -0.62 -0.4 -1.54 -1.6 -1.54 z M183.918 18.28 c2.32 0 3.32 -1.16 3.32 -2.84 c0 -1.88 -1.04 -3.2 -3.28 -3.2 l-3.46 0 l0 6.04 l3.42 0 z M202.60500000000002 18.28 l0.12 1.72 l-8.52 0 l0 -14 l8.12 0 l0.14 1.72 l-6.46 0 l0 3.42 l4.38 0 l0 1.72 l-4.38 0 l0 5.42 l6.6 0 z M217.07200000000003 20 l-1.22 -2.84 l-6.24 0 l-1.22 2.84 l-1.92 0 l6.16 -14.2 l0.2 0 l6.16 14.2 l-1.92 0 z M210.33200000000002 15.48 l4.8 0 l-2.4 -5.54 z M232.27900000000002 7.720000000000001 l-4.08 0 l0 12.28 l-1.8 0 l0 -12.28 l-4.1 0 l0.12 -1.72 l9.74 0 z">
		</path>
	</g>
</svg>
